<svg xmlns="http://www.w3.org/2000/svg" xmlns:xlink="http://www.w3.org/1999/xlink" viewBox="0 0 64 64"><defs><linearGradient id="a" x1="19.333" y1="51" x2="57.333" y2="13" gradientUnits="userSpaceOnUse"><stop offset="0" stop-color="#408ffd"/><stop offset="1" stop-color="#57aefd"/></linearGradient></defs><title>To-Do_64x</title><rect width="64" height="64" fill="none"/><path d="M11.114,21.219l-8.9,8.9a2.667,2.667,0,0,0,0,3.771L14.886,46.552,27.552,33.885,14.886,21.219A2.666,2.666,0,0,0,11.114,21.219Z" fill="#185abd"/><path d="M61.781,17.448l-8.895-8.9a2.668,2.668,0,0,0-3.772,0L38.333,19.333h0L25.667,32h0L14.886,42.781a2.665,2.665,0,0,0,0,3.771l8.9,8.9a2.665,2.665,0,0,0,3.771,0L38.333,44.666h0L51,32,61.781,21.219A2.667,2.667,0,0,0,61.781,17.448Z" fill="url(#a)"/></svg>